# xmcd CD database file
#
# Track frame offsets:
#	150
#	11285
#	28775
#	39615
#	55151
#	66521
#	77820
#	89916
#	104542
#	121136
#	133818
#	148841
#	163277
#	183241
#	204718
#
# Disc length: 2992 seconds
#
# Revision: 1
# Processed by: cddbd v1.5.2PL0 Copyright (c) Steve Scherf et al.
# Submitted via: CDex 1.70beta2
#
DISCID=e10bae0f
DTITLE=Various Artist - Christmas in the Country
DYEAR=2010
DGENRE=Christmas
TTITLE0=Sugarland - Winter Wonderland
TTITLE1=Rascal Flatts - God Rest Ye Merry Gentlemen
TTITLE2=Julianne Hough - Jingle Bell Rock
TTITLE3=Reba McEntire - The Christmas Song (Chestnuts Roasting On An Open Fire)
TTITLE4=George Strait - Joy To The World
TTITLE5=Lee Ann Womack - Silent Night
TTITLE6=Trisha Yearwood - Away In A Manger
TTITLE7=Tracy Byrd - Christmas Like Mama Used To Make
TTITLE8=Deana Carter - White Christmas
TTITLE9=Lonestar - Please Come Home For Christmas
TTITLE10=The Mavericks - Santa Claus Is Back In Town
TTITLE11=Mark Chesnutt - Light Of The World
TTITLE12=Josh Turner - The First Noel
TTITLE13=Gary Allan - O Holy Night
TTITLE14=Joe Nichols - Have Yourself A Merry Little Christmas
EXTD=YEAR: 2010
EXTT0=
EXTT1=
EXTT2=
EXTT3=
EXTT4=
EXTT5=
EXTT6=
EXTT7=
EXTT8=
EXTT9=
EXTT10=
EXTT11=
EXTT12=
EXTT13=
EXTT14=
PLAYORDER=
